<svg xmlns="http://www.w3.org/2000/svg" viewBox="0 0 542.83 140.4"><defs><style>.cls-1{fill:#f2ad1d;}.cls-2{fill:#dce4e5;}.cls-3{fill:#663987;}.cls-4{font-size:47px;letter-spacing:0.01em;}.cls-4,.cls-7{fill:#fff;font-family:Calibri-Bold, Calibri;font-weight:700;}.cls-5{letter-spacing:0em;}.cls-6{font-size:25px;letter-spacing:0.01em;}.cls-7{font-size:21px;letter-spacing:0.2em;}</style></defs><g id="Layer_2" data-name="Layer 2"><g id="Layer_1-2" data-name="Layer 1"><path class="cls-1" d="M128.69,89.85l.91.83a31.54,31.54,0,0,0,4.05-19.22c14-1.3,13.16-7.12,13.16-7.12a12.58,12.58,0,0,0-12.48,5.36,90,90,0,0,0,5.37-14.06c2.29-1.18,3.43-4.63,3.68-7a12.77,12.77,0,0,0-3.22-9.92.6.6,0,0,0-.82-.14,8.5,8.5,0,0,0-3.12,7.34,14.09,14.09,0,0,0,.85,4.27c.58,1.61.88,3.35,1.6,4.89A89.15,89.15,0,0,1,133.4,69c-.07-.81-.16-1.63-.26-2.45a62.15,62.15,0,0,0-4.56-16.21c7.21-12.26,1.95-15,1.95-15a12.4,12.4,0,0,0-3.39,11.53c-.37-.85-.74-1.69-1.1-2.53-1.23-2.84-2.45-5.63-3.49-8.42,2-1,2.66-3.45,3.44-5.47A18.27,18.27,0,0,0,127.42,23a.56.56,0,0,0-.75-.46c-4.27,1.4-4.76,7-4.93,11.09C120,28.27,119,22.81,120.05,17c2.13-3.58,7.3-5.3,7.57-9.9.11-1.81.38-5.71-1.55-6.83s-4.88,2.34-5.86,3.81c-2.39,3.56-2.29,8-1.2,11.94l0,.09a29.6,29.6,0,0,0-.26,10.3c-5.86-10.64-10.49-8-10.49-8a12.74,12.74,0,0,0,10.82,10,55.5,55.5,0,0,0,2.76,9.07,15.85,15.85,0,0,0-10.51-6,.56.56,0,0,0-.61.74c2,6.15,7.93,9.36,13.6,11.76a.59.59,0,0,0,.25,0c.13.29.26.58.38.88a97,97,0,0,1,6.13,16.87c-5.75-10.17-10.26-7.61-10.26-7.61a12.71,12.71,0,0,0,10.75,10c.16.87.3,1.74.4,2.62.34,2.83.54,5.63.62,8.38h0A29.73,29.73,0,0,1,128.69,89.85Z"/><path class="cls-1" d="M108.3,109.06l1.18.82A36.66,36.66,0,0,0,111,87.06c16-3.66,14-10.23,14-10.23a14.51,14.51,0,0,0-13.54,8.11,105.29,105.29,0,0,0,3.9-17.07c2.45-1.71,3.2-5.87,3.1-8.62a14.94,14.94,0,0,0-5.34-11,.7.7,0,0,0-1,0,9.89,9.89,0,0,0-2.41,9,17.16,17.16,0,0,0,1.69,4.8c.93,1.76,1.57,3.73,2.65,5.4a104.3,104.3,0,0,1-3.8,16.87c-.23-.93-.46-1.86-.71-2.79a72.45,72.45,0,0,0-7.93-18c6.33-15.27-.19-17.57-.19-17.57a14.34,14.34,0,0,0-2,13.82L97.78,57c-1.89-3.07-3.75-6.11-5.41-9.17,2.14-1.52,2.51-4.4,3.08-6.85a20.89,20.89,0,0,0,.42-8.83.66.66,0,0,0-.94-.43c-4.7,2.28-4.35,8.83-3.87,13.57-3-6-5-12.12-4.69-19,1.87-4.45,7.56-7.24,7.12-12.6C93.32,11.58,93,7,90.58,6,88,5,85.33,9.5,84.43,11.34c-2.17,4.48-1.34,9.53.57,14,0,0,0,.06.07.1a34.29,34.29,0,0,0,1.38,11.93C77.94,26,73,29.72,73,29.72a15,15,0,0,0,14.14,9.84,65.52,65.52,0,0,0,4.68,10,18.74,18.74,0,0,0-13.13-5.32.66.66,0,0,0-.59,1C81.5,52,88.82,54.81,95.76,56.72a.77.77,0,0,0,.3,0l.59,1c3.6,5.84,7.27,11.86,9.84,18.53C98.18,65.36,93.39,69,93.39,69a15,15,0,0,0,14.06,9.84c.32,1,.63,2,.89,3,.85,3.21,1.55,6.41,2.08,9.57h0A34.42,34.42,0,0,1,108.3,109.06Z"/><path class="cls-2" d="M39.81,50.89c-.46-.12,21.86-4.16,21.86-4.16,45.91,13.88,31.09,66.89,31.09,66.89S77,61.39,39.81,50.89Z"/><path class="cls-2" d="M21.94,63.43l70.58,52.76,70.63-59.76,6.26,7.62c-10.87,8.34-42.88,37.43-42.88,37.43l45.62-33.35,7.57,8c-3.3,2.61-66.83,54-86.49,56.13C83.51,133.34,13.9,79.05,9.88,76.19Z"/><path class="cls-1" d="M30.3,60.52,56.11,79.17c-.33-.55-12.81-12.27-20.67-19.63l11.22-2.17A78.87,78.87,0,0,1,62.58,70c15.34,16.57,29.27,43.81,29.27,43.81s-11.06-8.2-15-11.46-18.08-14.15-30-23.27S24.21,61.7,24.21,61.7Z"/><path class="cls-3" d="M81,133c-.21-.28-.42-.56-.62-.86-.53-.78-.81-1.3-.81-1.3L0,79l3.11-4.76,83.33,54.34a14.89,14.89,0,0,0,4.29,1.69,15.38,15.38,0,0,0,10-1.75l.31-.19,0,0,0,0,78.51-55.1,3,4.27-60.23,42.88h0l-14.26,10s-4.09,9.83-14.08,10.05c-5.53.09-9.63-3.43-12-6.22-.26-.3-.52-.63-.77-1Z"/><text class="cls-4" transform="translate(186.3 85.6)">LMS L<tspan class="cls-5" x="116.02" y="0">E</tspan><tspan x="138.84" y="0">ARNING</tspan><tspan class="cls-6" x="301" y="0"> </tspan></text><text class="cls-7" transform="translate(151.44 123.56)">HỌC ONLINE LAI RAI HỌC BỔNG</text></g></g></svg>